<?xml version="1.0" standalone="no"?>
<!DOCTYPE svg PUBLIC "-//W3C//DTD SVG 20010904//EN"
 "http://www.w3.org/TR/2001/REC-SVG-20010904/DTD/svg10.dtd">
<svg version="1.0" xmlns="http://www.w3.org/2000/svg"
 width="300.000000pt" height="300.000000pt" viewBox="0 0 300.000000 300.000000"
 preserveAspectRatio="xMidYMid meet">
<metadata>
Created by potrace 1.11, written by Peter Selinger 2001-2013
</metadata>
<g transform="translate(0.000000,300.000000) scale(0.100000,-0.100000)"
fill="#000000" stroke="none">
<path d="M220 2991 c-92 -28 -165 -97 -199 -185 -20 -50 -20 -82 -18 -1316 l2
-1265 30 -59 c35 -69 89 -118 159 -145 50 -20 82 -20 1321 -18 l1270 2 54 30
c64 35 115 95 142 164 18 49 19 95 19 1294 0 1384 4 1302 -68 1394 -22 27 -62
61 -93 78 l-54 30 -1270 2 c-698 1 -1281 -2 -1295 -6z"/>
</g>
</svg>
